<?xml version="1.0" standalone="no"?><!DOCTYPE svg PUBLIC "-//W3C//DTD SVG 1.1//EN" "http://www.w3.org/Graphics/SVG/1.1/DTD/svg11.dtd"><svg t="1649745904955" class="icon" viewBox="0 0 1024 1024" version="1.1" xmlns="http://www.w3.org/2000/svg" p-id="17374" xmlns:xlink="http://www.w3.org/1999/xlink" width="200" height="200"><defs><style type="text/css"></style></defs><path d="M322.56 600.746667h392.533333c5.12 0 8.533333-3.413333 8.533334-8.533334v-17.066666c0-5.12-3.413333-8.533333-8.533334-8.533334h-392.533333c-5.12 0-8.533333 3.413333-8.533333 8.533334v17.066666c0 3.413333 3.413333 8.533333 8.533333 8.533334z m256 68.266666h-256c-5.12 0-8.533333 3.413333-8.533333 8.533334v17.066666c0 5.12 3.413333 8.533333 8.533333 8.533334h256c5.12 0 8.533333-3.413333 8.533333-8.533334v-17.066666c0-5.12-3.413333-8.533333-8.533333-8.533334z m30.72 44.373334l-10.24 32.426666 42.666667 32.426667 27.306666 20.48 102.4-136.533333-27.306666-20.48-81.92 109.226666-52.906667-37.546666z m182.613333-505.173334h-71.68c-11.946667-39.253333-47.786667-68.266667-90.453333-68.266666h-13.653333c-13.653333-39.253333-51.2-68.266667-97.28-68.266667-44.373333 0-81.92 29.013333-97.28 68.266667h-13.653334c-42.666667 0-78.506667 29.013333-90.453333 68.266666h-71.68c-37.546667 0-68.266667 30.72-68.266667 68.266667v580.266667c0 37.546667 30.72 68.266667 68.266667 68.266666h546.133333c37.546667 0 68.266667-30.72 68.266667-68.266666v-580.266667c0-37.546667-30.72-68.266667-68.266667-68.266667z m-409.6 17.066667c0-10.24 6.826667-17.066667 17.066667-17.066667h51.2c0-37.546667 30.72-68.266667 68.266667-68.266666s68.266667 30.72 68.266666 68.266666h51.2c10.24 0 17.066667 6.826667 17.066667 17.066667v34.133333c0 10.24-6.826667 17.066667-17.066667 17.066667h-238.933333c-10.24 0-17.066667-6.826667-17.066667-17.066667v-34.133333z m409.6 631.466667h-546.133333v-580.266667h71.68c11.946667 39.253333 47.786667 68.266667 90.453333 68.266667h221.866667c42.666667 0 78.506667-29.013333 90.453333-68.266667h71.68v580.266667z m-469.333333-392.533334c-5.12 0-8.533333 3.413333-8.533333 8.533334v17.066666c0 5.12 3.413333 8.533333 8.533333 8.533334h392.533333c5.12 0 8.533333-3.413333 8.533334-8.533334v-17.066666c0-5.12-3.413333-8.533333-8.533334-8.533334h-392.533333z" fill="" p-id="17375"></path></svg>