<?xml version="1.0" standalone="no"?><!DOCTYPE svg PUBLIC "-//W3C//DTD SVG 1.1//EN" "http://www.w3.org/Graphics/SVG/1.1/DTD/svg11.dtd"><svg t="1649745946051" class="icon" viewBox="0 0 1024 1024" version="1.1" xmlns="http://www.w3.org/2000/svg" p-id="18483" xmlns:xlink="http://www.w3.org/1999/xlink" width="200" height="200"><defs><style type="text/css"></style></defs><path d="M466.752 128.96a71.376 71.376 0 0 1 90.496 0L924.16 429.392a19.2 19.2 0 0 1-24.32 29.712L532.912 158.688a32.976 32.976 0 0 0-41.84 0L124.16 459.088a19.2 19.2 0 1 1-24.32-29.712L466.752 128.976zM317.104 415.2a36.704 36.704 0 0 1 36.672-36.768h96.048a36.704 36.704 0 0 1 36.656 36.768v96.544a36.704 36.704 0 0 1-36.656 36.768H353.76a36.704 36.704 0 0 1-36.672-36.768V415.2z m38.4 1.632v93.28h92.576v-93.28H355.52z m-150.176 62.56a19.2 19.2 0 0 1 19.2 19.2v307.2c0 28.272 22.784 51.024 50.656 51.024h471.52c27.872 0 50.64-22.752 50.64-51.024v-307.2a19.2 19.2 0 1 1 38.4 0v307.2c0 49.28-39.776 89.424-89.056 89.424H275.2c-49.28 0-89.056-40.128-89.056-89.424v-307.2a19.2 19.2 0 0 1 19.2-19.2z m111.776 155.248a36.704 36.704 0 0 1 36.672-36.768h96.048a36.704 36.704 0 0 1 36.656 36.768v96.544a36.704 36.704 0 0 1-36.656 36.752H353.76a36.704 36.704 0 0 1-36.672-36.752v-96.544z m38.4 1.632v93.28h92.576v-93.28H355.52z m179.888-1.632a36.704 36.704 0 0 1 36.672-36.768h96.048a36.704 36.704 0 0 1 36.656 36.768v96.544a36.704 36.704 0 0 1-36.656 36.752h-96.048a36.704 36.704 0 0 1-36.672-36.752v-96.544z m38.4 1.632v93.28h92.576v-93.28h-92.576z" p-id="18484" data-spm-anchor-id="a313x.7781069.0.i56" class="selected"></path></svg>