<?xml version="1.0" standalone="no"?><!DOCTYPE svg PUBLIC "-//W3C//DTD SVG 1.1//EN" "http://www.w3.org/Graphics/SVG/1.1/DTD/svg11.dtd"><svg t="1649745955719" class="icon" viewBox="0 0 1024 1024" version="1.1" xmlns="http://www.w3.org/2000/svg" p-id="18752" xmlns:xlink="http://www.w3.org/1999/xlink" width="200" height="200"><defs><style type="text/css"></style></defs><path d="M845.8 315.5l123.7-65.6c4.9-2.6 2.8-10-2.8-9.7L827 249.7c-62.6 4.3-120.8 24-168.1 57.2-38 26.6-70.1 62.3-95.6 106-20.9 35.9-33.3 70.3-41.5 93.1-18.1 50.3-29 106-29.4 108.3-1.7 8.9-3.2 17.5-4.6 25.8-6.3 36.4-11.8 67.9-32.4 105.9-1.9 3.6-4.1 7.6-7.4 12.8-31.4 49.8-79 72.8-94.6 80.3-18.4 8.9-36.7 14.7-54.3 18.5-4.5 1-7.9-4.1-5.3-7.9 19.9-29.1 43.8-66.7 66.4-108.4 29.6-54.6 33.4-107.2 35.4-135.4 0.9-12.8 2.8-59.2-12.4-119.3-10.2-40.3-22.4-63.7-32.2-82.5-6.2-11.9-11.2-21.4-14.7-33.4-13-43.6-0.3-98.5 37.7-163l64.9-110.5c2.8-4.7-2.7-9.9-7.3-6.9l-107.1 70.4c-14.3 9.4-39.1 31.6-90.4 116.8-26.7 44.3-50.7 89.6-55.8 100.2-16.5 34.5-21.2 69-21.2 98.5 0 26.5 3.8 49 6.3 63.9 5.9 34.9 17.7 70.4 18.2 71.9l0.7 2.2c0.1 0.3 0.2 0.5 0.3 0.8l1.1 2.1c15.2 29 33 76 32 135.2-0.7 42.4-10.9 78.3-22.8 105.9-5.2 12.1-10.7 22.6-15.9 31.4l-9.1 15.4c-5.2 8.8 0 20.1 10 21.9 0.2 0 0.4 0.1 0.6 0.1 6.4 2 22 6.6 44.3 11.8 26.6 6.2 62.8 13.1 103.9 17 21.8 2.1 43 3.1 63.5 3.1 25.9 0 50.7-1.6 74.2-5 54.1-7.6 101.5-24 141-48.8 72.2-45.3 113-101.5 145.5-150.5 39.5-59.4 70.6-106.4 73-173.3 2-55.3-17.3-94-32.8-125.1-14.7-29.6-22.2-46-17.1-67.5 6.7-26.7 30.8-51.4 71.8-73.2z m-604.3 92.4c1.5-3.2 7.1-14 15.3-29.1 2.3-4.2 8.5-3.3 9.5 1.3 0.8 3.5 1.8 7 2.8 10.5 5.5 18.5 12.8 32.4 19.8 45.9 8.9 17.1 18.2 34.9 26.4 67.2 13 51.3 11 89.9 10.5 97.1-2.4 33.3-6.5 68.9-27.2 107.1-1.5 2.8-3.1 5.6-4.6 8.4-2.5 4.4-9.1 3-9.6-2-5.1-53.7-21.8-97.1-36.9-126.7-0.1-0.2-0.2-0.5-0.3-0.7-2.7-8.4-10.6-34.1-14.7-58.5-4.7-28.1-12.7-75.1 9-120.5z m512.8 171.3c-1.7 47.2-25.4 82.9-61.3 137.1-22 33.2-59 88.8-124.4 129.9-41.6 26.1-91.3 37.7-138.9 41.5-5.3 0.4-7.6-6.5-3.2-9.4 25.5-17.1 56.4-43.3 80.8-82 4.5-7.2 7.6-12.8 9.8-16.8C543 731.2 550 691 556.7 652c1.4-8 2.8-16.3 4.4-24.5 0-0.3 2.6-13.5 7.2-32.2 4.6-18.8 11.2-43.1 19.3-65.6C603.5 485.9 630 412.5 699 364.2l0.1-0.1c3.9-2.7 9.1 1 7.9 5.6-0.3 1.1-0.6 2.2-0.8 3.3-11.1 47.1 6.8 83.1 22.6 114.8 13.8 27.7 26.8 53.8 25.5 91.4z" p-id="18753"></path></svg>