<?xml version="1.0" standalone="no"?><!DOCTYPE svg PUBLIC "-//W3C//DTD SVG 1.1//EN" "http://www.w3.org/Graphics/SVG/1.1/DTD/svg11.dtd"><svg t="1649745934227" class="icon" viewBox="0 0 1155 1024" version="1.1" xmlns="http://www.w3.org/2000/svg" p-id="18184" xmlns:xlink="http://www.w3.org/1999/xlink" width="225.5859375" height="200"><defs><style type="text/css"></style></defs><path d="M56.231138 1024L0 816.585331 1098.791089 525.033968l56.126131 207.388418z m8.50555-170.452278l28.876869 106.476889L1090.285538 695.670008l-28.876868-106.503141zM380.912144 908.308765l-37.933704-125.535622 50.560771-14.98972 37.933704 125.535622z m718.850258-207.388417l-135.537519-77.468762 26.382957-45.257928 135.590022 77.547517z m-53.815982-271.993848l-35.439793-38.695003a110.257133 110.257133 0 0 0 43.814085-78.020048A106.975671 106.975671 0 0 0 1013.315559 235.530238l-3.018946-2.808932a159.111544 159.111544 0 0 1-60.851436-117.030071A157.51019 157.51019 0 0 1 1008.774015 0l19.452508 17.7724 17.851155 19.242495a110.545902 110.545902 0 0 0-43.971594 78.755095 108.550773 108.550773 0 0 0 42.422744 77.337504l4.777809 4.384033a155.96134 155.96134 0 0 1 57.753737 115.244956 159.164047 159.164047 0 0 1-61.113954 116.190017z m-160.89666 1.837619L854.177763 388.525137a85.029251 85.029251 0 0 0 41.818956-56.887431 81.380265 81.380265 0 0 0-39.088779-55.469839l-3.071449-2.283897 31.502038-41.871459 3.045197 2.257646c40.296357 29.743174 60.615172 62.636552 60.378906 97.761325-0.288769 35.492296-21.710155 68.77945-63.712872 98.732637z" p-id="18185"></path></svg>