<?xml version="1.0" standalone="no"?><!DOCTYPE svg PUBLIC "-//W3C//DTD SVG 1.1//EN" "http://www.w3.org/Graphics/SVG/1.1/DTD/svg11.dtd"><svg t="1649745959477" class="icon" viewBox="0 0 1024 1024" version="1.1" xmlns="http://www.w3.org/2000/svg" p-id="18886" xmlns:xlink="http://www.w3.org/1999/xlink" width="200" height="200"><defs><style type="text/css"></style></defs><path d="M812 892H212c-71.68 0-130-58.32-130-130V262c0-71.68 58.32-130 130-130h600c71.68 0 130 58.32 130 130v500c0 71.68-58.32 130-130 130zM212 192c-38.59 0-70 31.41-70 70v500c0 38.59 31.41 70 70 70h600c38.59 0 70-31.41 70-70V262c0-38.59-31.41-70-70-70H212z" p-id="18887"></path><path d="M792 422H592c-16.56 0-30-13.43-30-30s13.44-30 30-30h200c16.56 0 30 13.43 30 30s-13.44 30-30 30zM792 542H592c-16.56 0-30-13.43-30-30s13.44-30 30-30h200c16.56 0 30 13.43 30 30s-13.44 30-30 30zM792 662H592c-16.56 0-30-13.44-30-30s13.44-30 30-30h200c16.56 0 30 13.44 30 30s-13.44 30-30 30z" p-id="18888"></path><path d="M352 585.75c-67.21 0-121.88-54.67-121.88-121.88S284.79 342 352 342s121.88 54.67 121.88 121.88S419.21 585.75 352 585.75zM352 402c-34.12 0-61.88 27.75-61.88 61.88s27.75 61.88 61.88 61.88 61.88-27.75 61.88-61.88S386.12 402 352 402z" p-id="18889"></path><path d="M492.01 682c-8.27 0-16.49-3.4-22.42-10.06-29.87-33.57-72.72-52.83-117.59-52.83s-87.71 19.26-117.59 52.83c-11.03 12.38-29.96 13.46-42.35 2.48-12.37-11.02-13.49-29.98-2.47-42.36 41.24-46.37 100.44-72.95 162.41-72.95s121.17 26.58 162.41 72.95c11.02 12.38 9.9 31.35-2.47 42.36a29.903 29.903 0 0 1-19.93 7.58z" p-id="18890"></path></svg>