<?xml version="1.0" standalone="no"?><!DOCTYPE svg PUBLIC "-//W3C//DTD SVG 1.1//EN" "http://www.w3.org/Graphics/SVG/1.1/DTD/svg11.dtd"><svg t="1649745916234" class="icon" viewBox="0 0 1024 1024" version="1.1" xmlns="http://www.w3.org/2000/svg" p-id="17645" xmlns:xlink="http://www.w3.org/1999/xlink" width="200" height="200"><defs><style type="text/css"></style></defs><path d="M721.3 338.6c0-110.8-90.2-201-201-201s-201 90.2-201 201c0 72.5 38.6 136.1 96.2 171.5-10.4 3.3-20.6 7.1-30.7 11.3-42.1 17.8-79.9 43.3-112.4 75.8s-58 70.3-75.8 112.4c-18.4 43.6-27.8 89.9-27.8 137.6h46c0-169.6 138-307.6 307.6-307.6 109.9-1.2 198.9-90.9 198.9-201z m-356 0c0-85.5 69.5-155 155-155s155 69.5 155 155-69.5 155-155 155-155-69.5-155-155zM765.5 682v-50.2H843v-46h-77.4v-58H843v-46H719.5v204.8c-40.7 13.8-69.6 52.3-69.6 97.2 0 56.6 46 102.6 102.6 102.6 56.6 0 102.6-46 102.6-102.6 0.1-52.2-39.1-95.4-89.6-101.8z m-13 158.4c-31.2 0-56.6-25.4-56.6-56.6 0-30 23.4-54.8 53.3-56.6 1.1-0.1 2.2-0.1 3.3-0.1 31.2 0 56.6 25.4 56.6 56.6s-25.3 56.7-56.6 56.7z" p-id="17646"></path></svg>