<?xml version="1.0" standalone="no"?><!DOCTYPE svg PUBLIC "-//W3C//DTD SVG 1.1//EN" "http://www.w3.org/Graphics/SVG/1.1/DTD/svg11.dtd"><svg t="1649745930301" class="icon" viewBox="0 0 1024 1024" version="1.1" xmlns="http://www.w3.org/2000/svg" p-id="18048" xmlns:xlink="http://www.w3.org/1999/xlink" width="200" height="200"><defs><style type="text/css"></style></defs><path d="M861 62.16H159a64.19 64.19 0 0 0-64 64v767.68a64.19 64.19 0 0 0 64 64h702a64.19 64.19 0 0 0 64-64V126.16a64.19 64.19 0 0 0-64-64z m0 831.58l-0.11 0.11H159.12l-0.11-0.11V126.27l0.11-0.11h701.76l0.11 0.11z" p-id="18049"></path><path d="M317.06 286.24h383.27a32 32 0 0 0 0-64H317.06a32 32 0 1 0 0 64zM317.06 414.08h383.27a32 32 0 0 0 0-64H317.06a32 32 0 0 0 0 64zM445.09 479.29h-128a32 32 0 0 0 0 64h128a32 32 0 1 0 0-64zM785.11 739.4v-36.92h-98v-21.06h-25.24l27.3-9.88c-2.08-12.48-9.88-30.16-18.2-43.68l-34.32 12c6.76 13 13 29.64 15.34 41.6h-5.2v21.06h-95.93v36.88h67.86c-20.8 19.5-48.88 36.66-77.22 47.32 9.1 8.32 21.84 24.18 28.34 34.32 28.08-13.52 54.86-33.54 77-57.2v62.66h40.3v-64.22c22.36 23.92 49.66 44.46 77.74 57.72 6.5-10.4 19.24-26.26 28.34-34.32-27.87-10.68-56.22-27.3-77.53-46.28z" p-id="18050"></path><path d="M562.81 633.32c69.16-1.82 149.24-7.54 214-18.46l-29.9-34.58c-49.92 8.84-125.06 15.08-193.44 17.16 3.63 8.85 8.53 25.49 9.34 35.88zM733.89 699.88c12.22-15.6 27.56-39.26 40.82-62.14l-39-14.82c-7.8 20.54-21.84 46.54-33.54 63.18zM591.41 697.8L626 683c-3.9-13.52-14.56-32.24-25.22-46.28l-32 13.52c10.15 14.76 19.78 34.56 22.63 47.56z" p-id="18051"></path></svg>